<svg width="455" height="106" viewBox="0 0 455 106" fill="none" xmlns="http://www.w3.org/2000/svg">
<rect width="455" height="106" rx="3" fill="#0C1116"/>
<path d="M355.43 42.4205V46.4274C355.43 46.8936 355.807 47.2711 356.273 47.2711H362.014V70.8463H356.273C355.807 70.8463 355.43 71.224 355.43 71.6901V75.9H335.381V71.6901C335.381 71.224 335.002 70.8463 334.536 70.8463H329.011C329.001 69.8124 328.989 68.9823 328.989 68.3756V47.2711H334.536C335.002 47.2711 335.381 46.8936 335.381 46.4274V42.4205H355.43ZM322.545 33.9313V40.3073H294.385C293.918 40.3073 293.54 40.6848 293.54 41.151V68.6793C293.54 69.1454 293.919 69.5231 294.385 69.5231H322.545V75.899H293.906V71.6901C293.906 71.2241 293.528 70.8465 293.062 70.8463H287.226V39.692H293.062C293.529 39.6919 293.906 39.3135 293.906 38.8473V33.9313H322.545ZM401.361 30.9V70.8463H395.699C395.233 70.8463 394.856 71.224 394.855 71.6901V75.899H374.802V71.6901C374.801 71.224 374.424 70.8463 373.958 70.8463H368.276V49.943C368.276 48.8489 368.276 48.2838 368.275 47.2701H373.958C374.424 47.2701 374.802 46.8926 374.802 46.4264V42.4196H394.263C394.729 42.4194 395.106 42.042 395.106 41.5758V30.9H401.361ZM433.904 42.4205V46.4274C433.904 46.8936 434.283 47.2711 434.749 47.2711H440.074V62.317H415.148C414.682 62.317 414.305 62.6954 414.305 63.1617V68.8004C414.305 69.2667 414.682 69.6442 415.148 69.6442H440.074V75.899H414.224V71.692C414.224 71.2258 413.846 70.8474 413.38 70.8473H408.05V47.2711H413.38C413.846 47.271 414.224 46.8936 414.224 46.4274V42.4205H433.904ZM336.089 48.6754C335.623 48.6754 335.244 49.0529 335.244 49.5192V68.8004C335.244 69.2667 335.623 69.6442 336.089 69.6442H354.915C355.381 69.6441 355.759 69.2667 355.759 68.8004V49.5192C355.759 49.053 355.381 48.6755 354.915 48.6754H336.089ZM375.436 48.6754C374.969 48.6757 374.592 49.0531 374.592 49.5192V68.8004C374.592 69.2666 374.969 69.6439 375.436 69.6442H394.263C394.729 69.644 395.106 69.2666 395.106 68.8004V49.5192C395.106 49.053 394.729 48.6756 394.263 48.6754H375.436ZM415.148 48.6754C414.682 48.6754 414.305 49.0529 414.305 49.5192V56.0065C414.305 56.4728 414.682 56.8502 415.148 56.8502H432.976C433.442 56.8502 433.82 56.4728 433.82 56.0065V49.5192C433.82 49.0529 433.442 48.6754 432.976 48.6754H415.148Z" fill="url(#paint0_linear_113_55)"/>
<path d="M233.933 75.9218L250.105 34.0718H257.545L273.51 75.9218H266.225L262.091 64.4518H245.3L241.011 75.9218H233.933ZM247.521 58.3551H260.025L253.98 41.6151H253.773L247.521 58.3551Z" fill="white"/>
<path d="M211.901 76.1622C208.284 76.1622 205.064 75.2494 202.239 73.4239C199.449 71.5983 197.245 69.0667 195.626 65.8289C194.042 62.5567 193.249 58.8194 193.249 54.6172C193.249 50.3461 194.076 46.5916 195.729 43.3539C197.417 40.1161 199.725 37.6016 202.653 35.8105C205.615 33.985 209.008 33.0722 212.831 33.0722C215.897 33.0722 218.635 33.6578 221.046 34.8289C223.457 35.9655 225.438 37.5844 226.988 39.6855C228.538 41.7866 229.519 44.2666 229.933 47.1255H222.648C222.303 44.7833 221.253 42.9061 219.496 41.4939C217.739 40.0816 215.518 39.3755 212.831 39.3755C210.317 39.3755 208.112 40.0128 206.218 41.2872C204.358 42.5616 202.894 44.3528 201.826 46.6605C200.793 48.9339 200.276 51.6033 200.276 54.6689C200.276 57.7344 200.81 60.4383 201.878 62.7805C202.946 65.0883 204.409 66.9139 206.269 68.2572C208.164 69.5661 210.351 70.2205 212.831 70.2205C214.794 70.2205 216.551 69.8589 218.101 69.1355C219.651 68.3778 220.874 67.3616 221.769 66.0872C222.665 64.7783 223.113 63.3316 223.113 61.7472V59.5772H212.108V53.8939H224.404C226.23 53.8939 227.608 54.3761 228.538 55.3405C229.468 56.2705 229.933 57.6311 229.933 59.4222V75.5422H223.474V70.0139H223.268C222.407 71.8739 220.977 73.3722 218.979 74.5089C217.016 75.6111 214.657 76.1622 211.901 76.1622Z" fill="white"/>
<path d="M188.249 75.9218H161.073V34.0718H188.249V40.2718H168.048V51.1734H186.958V57.2701H168.048V69.7218H188.249V75.9218Z" fill="white"/>
<path d="M109.776 75.9218V34.0718H119.386L131.321 65.9501H131.527L143.514 34.0718H153.072V75.9218H146.097V43.4234H145.891L134.111 75.9218H128.272L116.492 43.3718H116.286V75.9218H109.776Z" fill="white"/>
<path d="M51.9951 14.577C52.6139 14.2197 53.3763 14.2197 53.9951 14.577L85.7656 32.9197C86.3844 33.2769 86.7656 33.9372 86.7656 34.6517V71.3371C86.7656 72.0517 86.3844 72.7119 85.7656 73.0692L53.9951 91.4119C53.3763 91.7691 52.6139 91.7692 51.9951 91.4119L20.2246 73.0692C19.6058 72.7119 19.2246 72.0517 19.2246 71.3371V34.6517C19.2246 33.9372 19.6058 33.2769 20.2246 32.9197L51.9951 14.577Z" fill="#020307"/>
<path d="M86.7658 34.6527C86.7658 33.9828 86.4308 33.3601 85.8791 32.9906L85.7658 32.9202L53.9953 14.5775C53.3766 14.2203 52.6141 14.2204 51.9953 14.5775L20.2248 32.9202L20.1115 32.9906C19.5596 33.3601 19.2248 33.9827 19.2248 34.6527V71.3382L19.2287 71.471C19.2728 72.1337 19.6447 72.7347 20.2248 73.0697L51.9953 91.4124C52.5754 91.7473 53.2813 91.768 53.8772 91.4749L53.9953 91.4124L85.7658 73.0697C86.3458 72.7347 86.7168 72.1335 86.761 71.471L86.7658 71.3382V34.6527ZM87.7658 71.3382C87.7657 72.4098 87.1938 73.4 86.2658 73.9359L54.4953 92.2786C53.5672 92.8145 52.4235 92.8144 51.4953 92.2786L19.7248 73.9359C18.7967 73.4 18.225 72.4099 18.2248 71.3382V34.6527C18.2248 33.5809 18.7966 32.5899 19.7248 32.054L51.4953 13.7113C52.4235 13.1756 53.5673 13.1754 54.4953 13.7113L86.2658 32.054C87.194 32.5899 87.7658 33.5809 87.7658 34.6527V71.3382Z" fill="white"/>
<path d="M43.0009 34.6794C52.5668 29.1566 64.7985 32.4341 70.3214 41.9999C71.1498 43.4348 70.6582 45.2695 69.2233 46.098C67.7885 46.9264 65.9537 46.4348 65.1253 44.9999C61.2592 38.3039 52.697 36.0096 46.0009 39.8755C39.3048 43.7415 37.0106 52.3037 40.8765 58.9999C41.7049 60.4347 41.2131 62.2695 39.7785 63.098C38.3436 63.9264 36.5088 63.4348 35.6804 61.9999C30.1576 52.434 33.435 40.2022 43.0009 34.6794Z" fill="url(#paint1_linear_113_55)"/>
<g filter="url(#filter0_d_113_55)">
<circle cx="38.4982" cy="60.4992" r="2.5" fill="#D9D9D9"/>
</g>
<path d="M60.001 64.1239C66.6971 60.2578 68.9914 51.6957 65.1254 44.9996C64.297 43.5647 64.7886 41.7299 66.2235 40.9015C67.6583 40.0731 69.4931 40.5647 70.3215 41.9996C75.8444 51.5655 72.5668 63.7971 63.001 69.3201C53.4351 74.843 41.2034 71.5655 35.6805 61.9996C34.8521 60.5647 35.3437 58.7299 36.7786 57.9015C38.2134 57.0733 40.0483 57.5648 40.8767 58.9996C44.7427 65.6957 53.3048 67.99 60.001 64.1239Z" fill="url(#paint2_linear_113_55)"/>
<g filter="url(#filter1_d_113_55)">
<circle cx="67.5022" cy="43.4996" r="2.5" fill="#D9D9D9"/>
</g>
<path d="M70.3219 41.9996C71.1501 43.4344 70.6586 45.2693 69.2238 46.0976C67.789 46.926 65.9542 46.4342 65.1257 44.9996C64.4615 43.849 63.6617 42.8316 62.7597 41.9543C61.5721 40.799 61.5459 38.8998 62.7011 37.7121C63.8564 36.5247 65.7557 36.4983 66.9433 37.6535C68.2371 38.912 69.3789 40.3662 70.3219 41.9996Z" fill="#FFEF9D"/>
<defs>
<filter id="filter0_d_113_55" x="30.9982" y="52.9992" width="15" height="15" filterUnits="userSpaceOnUse" color-interpolation-filters="sRGB">
<feFlood flood-opacity="0" result="BackgroundImageFix"/>
<feColorMatrix in="SourceAlpha" type="matrix" values="0 0 0 0 0 0 0 0 0 0 0 0 0 0 0 0 0 0 127 0" result="hardAlpha"/>
<feOffset/>
<feGaussianBlur stdDeviation="2.5"/>
<feComposite in2="hardAlpha" operator="out"/>
<feColorMatrix type="matrix" values="0 0 0 0 0.00784314 0 0 0 0 0.0117647 0 0 0 0 0.027451 0 0 0 0.9 0"/>
<feBlend mode="normal" in2="BackgroundImageFix" result="effect1_dropShadow_113_55"/>
<feBlend mode="normal" in="SourceGraphic" in2="effect1_dropShadow_113_55" result="shape"/>
</filter>
<filter id="filter1_d_113_55" x="60.0022" y="35.9996" width="15" height="15" filterUnits="userSpaceOnUse" color-interpolation-filters="sRGB">
<feFlood flood-opacity="0" result="BackgroundImageFix"/>
<feColorMatrix in="SourceAlpha" type="matrix" values="0 0 0 0 0 0 0 0 0 0 0 0 0 0 0 0 0 0 127 0" result="hardAlpha"/>
<feOffset/>
<feGaussianBlur stdDeviation="2.5"/>
<feComposite in2="hardAlpha" operator="out"/>
<feColorMatrix type="matrix" values="0 0 0 0 0.00784314 0 0 0 0 0.0117647 0 0 0 0 0.027451 0 0 0 0.9 0"/>
<feBlend mode="normal" in2="BackgroundImageFix" result="effect1_dropShadow_113_55"/>
<feBlend mode="normal" in="SourceGraphic" in2="effect1_dropShadow_113_55" result="shape"/>
</filter>
<linearGradient id="paint0_linear_113_55" x1="287.001" y1="30.9" x2="312.838" y2="-8.17776" gradientUnits="userSpaceOnUse">
<stop stop-color="#FFF0A3"/>
<stop offset="0.5" stop-color="white"/>
<stop offset="1" stop-color="#6190FF"/>
</linearGradient>
<linearGradient id="paint1_linear_113_55" x1="63.4734" y1="36.1387" x2="34.0282" y2="53.1389" gradientUnits="userSpaceOnUse">
<stop offset="0.2" stop-color="#FFEF9D"/>
<stop offset="0.6" stop-color="white"/>
<stop offset="1" stop-color="#6191FF"/>
</linearGradient>
<linearGradient id="paint2_linear_113_55" x1="71.9735" y1="50.8609" x2="42.5283" y2="67.861" gradientUnits="userSpaceOnUse">
<stop stop-color="#6191FF"/>
<stop offset="0.4" stop-color="white"/>
<stop offset="0.8" stop-color="#FFEF9D"/>
</linearGradient>
</defs>
</svg>
