<svg width="445" height="96" viewBox="0 0 445 96" fill="none" xmlns="http://www.w3.org/2000/svg">
<path d="M350.43 37.4205V41.4274C350.43 41.8936 350.807 42.2711 351.273 42.2711H357.014V65.8463H351.273C350.807 65.8463 350.43 66.224 350.43 66.6901V70.9H330.381V66.6901C330.381 66.224 330.002 65.8463 329.536 65.8463H324.011C324.001 64.8124 323.989 63.9823 323.989 63.3756V42.2711H329.536C330.002 42.2711 330.381 41.8936 330.381 41.4274V37.4205H350.43ZM317.545 28.9313V35.3073H289.385C288.918 35.3073 288.54 35.6848 288.54 36.151V63.6793C288.54 64.1454 288.919 64.5231 289.385 64.5231H317.545V70.899H288.906V66.6901C288.906 66.2241 288.528 65.8465 288.062 65.8463H282.226V34.692H288.062C288.529 34.6919 288.906 34.3135 288.906 33.8473V28.9313H317.545ZM396.361 25.9V65.8463H390.699C390.233 65.8463 389.856 66.224 389.855 66.6901V70.899H369.802V66.6901C369.801 66.224 369.424 65.8463 368.958 65.8463H363.276V44.943C363.276 43.8489 363.276 43.2838 363.275 42.2701H368.958C369.424 42.2701 369.802 41.8926 369.802 41.4264V37.4196H389.263C389.729 37.4194 390.106 37.042 390.106 36.5758V25.9H396.361ZM428.904 37.4205V41.4274C428.904 41.8936 429.283 42.2711 429.749 42.2711H435.074V57.317H410.148C409.682 57.317 409.305 57.6954 409.305 58.1617V63.8004C409.305 64.2667 409.682 64.6442 410.148 64.6442H435.074V70.899H409.224V66.692C409.224 66.2258 408.846 65.8474 408.38 65.8473H403.05V42.2711H408.38C408.846 42.271 409.224 41.8936 409.224 41.4274V37.4205H428.904ZM331.089 43.6754C330.623 43.6754 330.244 44.0529 330.244 44.5192V63.8004C330.244 64.2667 330.623 64.6442 331.089 64.6442H349.915C350.381 64.6441 350.759 64.2667 350.759 63.8004V44.5192C350.759 44.053 350.381 43.6755 349.915 43.6754H331.089ZM370.436 43.6754C369.969 43.6757 369.592 44.0531 369.592 44.5192V63.8004C369.592 64.2666 369.969 64.6439 370.436 64.6442H389.263C389.729 64.644 390.106 64.2666 390.106 63.8004V44.5192C390.106 44.053 389.729 43.6756 389.263 43.6754H370.436ZM410.148 43.6754C409.682 43.6754 409.305 44.0529 409.305 44.5192V51.0065C409.305 51.4728 409.682 51.8502 410.148 51.8502H427.976C428.442 51.8502 428.82 51.4728 428.82 51.0065V44.5192C428.82 44.0529 428.442 43.6754 427.976 43.6754H410.148Z" fill="url(#paint0_linear_112_3)"/>
<path d="M228.933 70.9218L245.105 29.0718H252.545L268.51 70.9218H261.225L257.091 59.4518H240.3L236.011 70.9218H228.933ZM242.521 53.3551H255.025L248.98 36.6151H248.773L242.521 53.3551Z" fill="white"/>
<path d="M206.901 71.1622C203.284 71.1622 200.064 70.2494 197.239 68.4239C194.449 66.5983 192.245 64.0667 190.626 60.8289C189.042 57.5567 188.249 53.8194 188.249 49.6172C188.249 45.3461 189.076 41.5916 190.729 38.3539C192.417 35.1161 194.725 32.6016 197.653 30.8105C200.615 28.985 204.008 28.0722 207.831 28.0722C210.897 28.0722 213.635 28.6578 216.046 29.8289C218.457 30.9655 220.438 32.5844 221.988 34.6855C223.538 36.7866 224.519 39.2666 224.933 42.1255H217.648C217.303 39.7833 216.253 37.9061 214.496 36.4939C212.739 35.0816 210.518 34.3755 207.831 34.3755C205.317 34.3755 203.112 35.0128 201.218 36.2872C199.358 37.5616 197.894 39.3528 196.826 41.6605C195.793 43.9339 195.276 46.6033 195.276 49.6689C195.276 52.7344 195.81 55.4383 196.878 57.7805C197.946 60.0883 199.409 61.9139 201.269 63.2572C203.164 64.5661 205.351 65.2205 207.831 65.2205C209.794 65.2205 211.551 64.8589 213.101 64.1355C214.651 63.3778 215.874 62.3616 216.769 61.0872C217.665 59.7783 218.113 58.3316 218.113 56.7472V54.5772H207.108V48.8939H219.404C221.23 48.8939 222.608 49.3761 223.538 50.3405C224.468 51.2705 224.933 52.6311 224.933 54.4222V70.5422H218.474V65.0139H218.268C217.407 66.8739 215.977 68.3722 213.979 69.5089C212.016 70.6111 209.657 71.1622 206.901 71.1622Z" fill="white"/>
<path d="M183.249 70.9218H156.073V29.0718H183.249V35.2718H163.048V46.1734H181.958V52.2701H163.048V64.7218H183.249V70.9218Z" fill="white"/>
<path d="M104.776 70.9218V29.0718H114.386L126.321 60.9501H126.527L138.514 29.0718H148.072V70.9218H141.097V38.4234H140.891L129.111 70.9218H123.272L111.492 38.3718H111.286V70.9218H104.776Z" fill="white"/>
<path d="M46.9951 9.57697C47.6139 9.21971 48.3763 9.2197 48.9951 9.57697L80.7656 27.9197C81.3844 28.2769 81.7656 28.9372 81.7656 29.6517V66.3371C81.7656 67.0517 81.3844 67.7119 80.7656 68.0692L48.9951 86.4119C48.3763 86.7691 47.6139 86.7692 46.9951 86.4119L15.2246 68.0692C14.6058 67.7119 14.2246 67.0517 14.2246 66.3371V29.6517C14.2246 28.9372 14.6058 28.2769 15.2246 27.9197L46.9951 9.57697Z" fill="#020307"/>
<path d="M81.7658 29.6527C81.7658 28.9828 81.4308 28.3601 80.8791 27.9906L80.7658 27.9202L48.9953 9.57747C48.3766 9.22026 47.6141 9.22039 46.9953 9.57747L15.2248 27.9202L15.1115 27.9906C14.5596 28.3601 14.2248 28.9827 14.2248 29.6527V66.3382L14.2287 66.471C14.2728 67.1337 14.6447 67.7347 15.2248 68.0697L46.9953 86.4124C47.5754 86.7473 48.2813 86.768 48.8772 86.4749L48.9953 86.4124L80.7658 68.0697C81.3458 67.7347 81.7168 67.1335 81.761 66.471L81.7658 66.3382V29.6527ZM82.7658 66.3382C82.7657 67.4098 82.1938 68.4 81.2658 68.9359L49.4953 87.2786C48.5672 87.8145 47.4235 87.8144 46.4953 87.2786L14.7248 68.9359C13.7967 68.4 13.225 67.4099 13.2248 66.3382V29.6527C13.2248 28.5809 13.7966 27.5899 14.7248 27.054L46.4953 8.71126C47.4235 8.17559 48.5673 8.17543 49.4953 8.71126L81.2658 27.054C82.194 27.5899 82.7658 28.5809 82.7658 29.6527V66.3382Z" fill="white"/>
<path d="M38.0009 29.6794C47.5668 24.1566 59.7985 27.4341 65.3214 36.9999C66.1498 38.4348 65.6582 40.2695 64.2233 41.098C62.7885 41.9264 60.9537 41.4348 60.1253 39.9999C56.2592 33.3039 47.697 31.0096 41.0009 34.8755C34.3048 38.7415 32.0106 47.3037 35.8765 53.9999C36.7049 55.4347 36.2131 57.2695 34.7785 58.098C33.3436 58.9264 31.5088 58.4348 30.6804 56.9999C25.1576 47.434 28.435 35.2022 38.0009 29.6794Z" fill="url(#paint1_linear_112_3)"/>
<g filter="url(#filter0_d_112_3)">
<circle cx="33.4982" cy="55.4993" r="2.5" fill="#D9D9D9"/>
</g>
<path d="M55.001 59.1239C61.6971 55.2578 63.9914 46.6957 60.1254 39.9996C59.297 38.5647 59.7886 36.7299 61.2235 35.9015C62.6583 35.0731 64.4931 35.5647 65.3215 36.9996C70.8444 46.5655 67.5668 58.7971 58.001 64.3201C48.4351 69.843 36.2034 66.5655 30.6805 56.9996C29.8521 55.5647 30.3437 53.7299 31.7786 52.9015C33.2134 52.0733 35.0483 52.5648 35.8767 53.9996C39.7427 60.6957 48.3048 62.99 55.001 59.1239Z" fill="url(#paint2_linear_112_3)"/>
<g filter="url(#filter1_d_112_3)">
<circle cx="62.5022" cy="38.4996" r="2.5" fill="#D9D9D9"/>
</g>
<path d="M65.3219 36.9995C66.1501 38.4344 65.6586 40.2692 64.2238 41.0976C62.789 41.926 60.9542 41.4342 60.1257 39.9995C59.4615 38.849 58.6617 37.8316 57.7597 36.9542C56.5721 35.799 56.5459 33.8997 57.7011 32.7121C58.8564 31.5246 60.7557 31.4983 61.9433 32.6534C63.2371 33.912 64.3789 35.3662 65.3219 36.9995Z" fill="#FFEF9D"/>
<defs>
<filter id="filter0_d_112_3" x="25.9982" y="47.9993" width="15" height="15" filterUnits="userSpaceOnUse" color-interpolation-filters="sRGB">
<feFlood flood-opacity="0" result="BackgroundImageFix"/>
<feColorMatrix in="SourceAlpha" type="matrix" values="0 0 0 0 0 0 0 0 0 0 0 0 0 0 0 0 0 0 127 0" result="hardAlpha"/>
<feOffset/>
<feGaussianBlur stdDeviation="2.5"/>
<feComposite in2="hardAlpha" operator="out"/>
<feColorMatrix type="matrix" values="0 0 0 0 0.00784314 0 0 0 0 0.0117647 0 0 0 0 0.027451 0 0 0 0.9 0"/>
<feBlend mode="normal" in2="BackgroundImageFix" result="effect1_dropShadow_112_3"/>
<feBlend mode="normal" in="SourceGraphic" in2="effect1_dropShadow_112_3" result="shape"/>
</filter>
<filter id="filter1_d_112_3" x="55.0022" y="30.9996" width="15" height="15" filterUnits="userSpaceOnUse" color-interpolation-filters="sRGB">
<feFlood flood-opacity="0" result="BackgroundImageFix"/>
<feColorMatrix in="SourceAlpha" type="matrix" values="0 0 0 0 0 0 0 0 0 0 0 0 0 0 0 0 0 0 127 0" result="hardAlpha"/>
<feOffset/>
<feGaussianBlur stdDeviation="2.5"/>
<feComposite in2="hardAlpha" operator="out"/>
<feColorMatrix type="matrix" values="0 0 0 0 0.00784314 0 0 0 0 0.0117647 0 0 0 0 0.027451 0 0 0 0.9 0"/>
<feBlend mode="normal" in2="BackgroundImageFix" result="effect1_dropShadow_112_3"/>
<feBlend mode="normal" in="SourceGraphic" in2="effect1_dropShadow_112_3" result="shape"/>
</filter>
<linearGradient id="paint0_linear_112_3" x1="282.001" y1="25.9" x2="307.838" y2="-13.1778" gradientUnits="userSpaceOnUse">
<stop stop-color="#FFF0A3"/>
<stop offset="0.5" stop-color="white"/>
<stop offset="1" stop-color="#6190FF"/>
</linearGradient>
<linearGradient id="paint1_linear_112_3" x1="58.4734" y1="31.1387" x2="29.0282" y2="48.1389" gradientUnits="userSpaceOnUse">
<stop offset="0.2" stop-color="#FFEF9D"/>
<stop offset="0.6" stop-color="white"/>
<stop offset="1" stop-color="#6191FF"/>
</linearGradient>
<linearGradient id="paint2_linear_112_3" x1="66.9735" y1="45.8609" x2="37.5283" y2="62.861" gradientUnits="userSpaceOnUse">
<stop stop-color="#6191FF"/>
<stop offset="0.4" stop-color="white"/>
<stop offset="0.8" stop-color="#FFEF9D"/>
</linearGradient>
</defs>
</svg>
